<svg width="32" height="32" viewBox="0 0 32 32" fill="none" xmlns="http://www.w3.org/2000/svg">
<path fill-rule="evenodd" clip-rule="evenodd" d="M24.4568 11.4736C24.0256 11.4736 23.6072 11.5296 23.2088 11.6344C22.4624 9.5176 20.4456 8 18.0736 8C15.1672 8 12.7928 10.2768 12.6368 13.1448C12.4592 13.1216 12.2792 13.1048 12.0944 13.1048C9.8328 13.1048 8 14.9384 8 17.2C8 19.4608 9.8328 21.2944 12.0944 21.2944H24.4568C27.1688 21.2944 29.3672 19.0968 29.3672 16.384C29.3672 13.672 27.1688 11.4736 24.4568 11.4736Z" fill="#595B5C"/>
<path fill-rule="evenodd" clip-rule="evenodd" d="M18.4568 14.4736C18.0256 14.4736 17.6072 14.5296 17.2088 14.6344C16.4624 12.5176 14.4456 11 12.0736 11C9.1672 11 6.7928 13.2768 6.6368 16.1448C6.4592 16.1216 6.2792 16.1048 6.0944 16.1048C3.8328 16.1048 2 17.9384 2 20.2C2 22.4608 3.8328 24.2944 6.0944 24.2944H18.4568C21.1688 24.2944 23.3672 22.0968 23.3672 19.384C23.3672 16.672 21.1688 14.4736 18.4568 14.4736Z" fill="#D0D2D3"/>
</svg>
