<svg width="32" height="32" viewBox="0 0 32 32" fill="none" xmlns="http://www.w3.org/2000/svg">
<path fill-rule="evenodd" clip-rule="evenodd" d="M6.35759 15.1603H26.0736C26.5936 15.1603 27.02 14.7843 27.02 14.3251C27.02 13.8659 26.5936 13.4907 26.0736 13.4907H6.35759C5.83679 13.4907 5.41119 13.8659 5.41119 14.3251C5.41119 14.7843 5.83679 15.1603 6.35759 15.1603" fill="#D0D2D3"/>
<path fill-rule="evenodd" clip-rule="evenodd" d="M26.0733 17.2368H6.35729C5.83729 17.2368 5.41089 17.6128 5.41089 18.072C5.41089 18.5312 5.83729 18.9064 6.35729 18.9064H26.0733C26.5941 18.9064 27.0197 18.5312 27.0197 18.072C27.0197 17.6128 26.5941 17.2368 26.0733 17.2368" fill="#D0D2D3"/>
<path fill-rule="evenodd" clip-rule="evenodd" d="M23.4706 20.9437H8.96019C8.44019 20.9437 8.01379 21.3197 8.01379 21.7789C8.01379 22.2373 8.44019 22.6133 8.96019 22.6133H23.4706C23.9914 22.6133 24.417 22.2373 24.417 21.7789C24.417 21.3197 23.9914 20.9437 23.4706 20.9437" fill="#D0D2D3"/>
<path fill-rule="evenodd" clip-rule="evenodd" d="M8.96044 11.4922H23.4708C23.9916 11.4922 24.4172 11.1162 24.4172 10.657C24.4172 10.1978 23.9916 9.82184 23.4708 9.82184H8.96044C8.44044 9.82184 8.01404 10.1978 8.01404 10.657C8.01404 11.1162 8.44044 11.4922 8.96044 11.4922" fill="#D0D2D3"/>
</svg>
