<svg width="32" height="32" viewBox="0 0 32 32" fill="none" xmlns="http://www.w3.org/2000/svg">
<path fill-rule="evenodd" clip-rule="evenodd" d="M21.6115 8.44266C21.1803 8.44266 20.7619 8.49866 20.3635 8.60266C19.6171 6.48586 17.6003 4.96906 15.2283 4.96906C12.3219 4.96906 9.94746 7.24585 9.79146 10.1131C9.61386 10.0907 9.43386 10.0739 9.24906 10.0739C6.98746 10.0739 5.15466 11.9067 5.15466 14.1683C5.15466 16.4299 6.98746 18.2635 9.24906 18.2635H21.6115C24.3235 18.2635 26.5219 16.0651 26.5219 13.3531C26.5219 10.6411 24.3235 8.44266 21.6115 8.44266" fill="#D0D2D3"/>
<path fill-rule="evenodd" clip-rule="evenodd" d="M13.2318 20.1879C13.2318 20.1879 11.7478 20.9191 11.5046 21.0719C11.2606 21.2255 11.1686 21.2959 11.0486 21.4719C10.6726 22.0247 10.8166 22.7775 11.3694 23.1527C11.9222 23.5287 12.6742 23.3855 13.0502 22.8327C13.1726 22.6527 13.1934 22.5535 13.255 22.2487C13.3174 21.9447 13.4214 20.3159 13.4214 20.3159C13.4326 20.1871 13.3478 20.1287 13.2318 20.1879" fill="#26A9E0"/>
<path fill-rule="evenodd" clip-rule="evenodd" d="M17.0131 20.1879C17.0131 20.1879 15.5291 20.9191 15.2859 21.0719C15.0427 21.2255 14.9499 21.2959 14.8299 21.4719C14.4547 22.0247 14.5979 22.7775 15.1507 23.1527C15.7035 23.5287 16.4555 23.3855 16.8315 22.8327C16.9539 22.6527 16.9747 22.5535 17.0371 22.2487C17.0995 21.9447 17.2035 20.3159 17.2035 20.3159C17.2147 20.1871 17.1291 20.1287 17.0131 20.1879" fill="#26A9E0"/>
<path fill-rule="evenodd" clip-rule="evenodd" d="M13.2318 24.1868C13.2318 24.1868 11.7478 24.9188 11.5046 25.0708C11.2606 25.2244 11.1686 25.2948 11.0486 25.4708C10.6726 26.0236 10.8166 26.7764 11.3694 27.1524C11.9222 27.5276 12.6742 27.3844 13.0502 26.8316C13.1726 26.6516 13.1934 26.5524 13.255 26.2476C13.3174 25.9436 13.4214 24.3156 13.4214 24.3156C13.4326 24.186 13.3478 24.1276 13.2318 24.1868" fill="#26A9E0"/>
<path fill-rule="evenodd" clip-rule="evenodd" d="M17.0131 24.1868C17.0131 24.1868 15.5291 24.9188 15.2859 25.0708C15.0427 25.2244 14.9499 25.2948 14.8299 25.4708C14.4547 26.0236 14.5979 26.7764 15.1507 27.1524C15.7035 27.5276 16.4555 27.3844 16.8315 26.8316C16.9539 26.6516 16.9747 26.5524 17.0371 26.2476C17.0995 25.9436 17.2035 24.3156 17.2035 24.3156C17.2147 24.186 17.1291 24.1276 17.0131 24.1868" fill="#26A9E0"/>
<path fill-rule="evenodd" clip-rule="evenodd" d="M20.9061 20.1879C20.9061 20.1879 19.4221 20.9191 19.1789 21.0719C18.9357 21.2247 18.8429 21.2951 18.7237 21.4719C18.3477 22.0247 18.4909 22.7775 19.0437 23.1527C19.5965 23.5287 20.3493 23.3847 20.7245 22.8327C20.8469 22.6527 20.8677 22.5535 20.9301 22.2479C20.9925 21.9439 21.0965 20.3159 21.0965 20.3159C21.1077 20.1863 21.0221 20.1287 20.9061 20.1879" fill="#26A9E0"/>
<path fill-rule="evenodd" clip-rule="evenodd" d="M20.9061 24.1868C20.9061 24.1868 19.4221 24.9188 19.1789 25.0708C18.9357 25.2236 18.8429 25.2948 18.7237 25.4708C18.3477 26.0236 18.4909 26.7764 19.0437 27.1524C19.5965 27.5276 20.3493 27.3844 20.7245 26.8316C20.8469 26.6516 20.8677 26.5524 20.9301 26.2476C20.9925 25.9436 21.0965 24.3148 21.0965 24.3148C21.1077 24.1852 21.0221 24.1276 20.9061 24.1868" fill="#26A9E0"/>
</svg>
