<svg width="32" height="32" viewBox="0 0 32 32" fill="none" xmlns="http://www.w3.org/2000/svg">
<path fill-rule="evenodd" clip-rule="evenodd" d="M8.57795 25.5016C8.52915 25.6024 8.50275 25.6592 8.48195 25.7472C8.35715 26.2856 8.72755 26.8328 9.31075 26.968C9.89235 27.1032 10.466 26.7768 10.5916 26.2376C10.6116 26.1504 10.6172 26.0824 10.614 25.9752C10.674 25.088 10.0684 23.7072 10.0684 23.7072C10.0684 23.7072 8.92515 24.668 8.57795 25.5016" fill="#26A9E0"/>
<path fill-rule="evenodd" clip-rule="evenodd" d="M11.5964 27.4719C11.5468 27.5727 11.5204 27.6295 11.4996 27.7183C11.3756 28.2567 11.746 28.8031 12.3284 28.9383C12.9108 29.0735 13.4844 28.7471 13.61 28.2079C13.63 28.1199 13.6348 28.0535 13.6316 27.9455C13.6916 27.0583 13.086 25.6775 13.086 25.6775C13.086 25.6775 11.9428 26.6391 11.5964 27.4719" fill="#26A9E0"/>
<path fill-rule="evenodd" clip-rule="evenodd" d="M14.3138 25.2176C14.265 25.3184 14.2386 25.3752 14.2186 25.4632C14.093 26.0024 14.4642 26.5488 15.0466 26.684C15.6282 26.8192 16.2026 26.4928 16.3282 25.9536C16.3482 25.8664 16.353 25.7992 16.3506 25.6912C16.409 24.804 15.8042 23.4232 15.8042 23.4232C15.8042 23.4232 14.661 24.3848 14.3138 25.2176" fill="#26A9E0"/>
<path fill-rule="evenodd" clip-rule="evenodd" d="M20.6877 6.37897C20.7845 6.71817 21.1413 6.91577 21.4797 6.81897L21.5093 6.81097C21.8477 6.71337 22.0461 6.35737 21.9493 6.01817L21.5357 4.57177C21.4381 4.23337 21.0821 4.03577 20.7429 4.13257L20.7141 4.14057C20.3749 4.23737 20.1773 4.59417 20.2741 4.93257L20.6877 6.37897Z" fill="#FF9933"/>
<path fill-rule="evenodd" clip-rule="evenodd" d="M19.16 7.29579L18.0784 6.25019C17.8256 6.00539 17.4176 6.01179 17.1728 6.26539L17.152 6.28699C16.9072 6.54059 16.9136 6.94779 17.1672 7.19339L18.2488 8.23899C18.5016 8.48379 18.9096 8.47659 19.1544 8.22379L19.176 8.20139C19.4208 7.94779 19.4136 7.54059 19.16 7.29579" fill="#FF9933"/>
<path fill-rule="evenodd" clip-rule="evenodd" d="M24.1964 6.76531L24.226 6.77251C24.5676 6.85811 24.9172 6.64851 25.0028 6.30611L25.3676 4.84771C25.4532 4.50531 25.2436 4.15571 24.9012 4.07011L24.8724 4.06291C24.53 3.97731 24.1804 4.18691 24.0956 4.52931L23.73 5.98851C23.6452 6.33011 23.8548 6.67971 24.1964 6.76531" fill="#FF9933"/>
<path fill-rule="evenodd" clip-rule="evenodd" d="M23.937 7.8665C21.877 7.3513 19.793 8.4865 19.0762 10.4353C19.117 10.4345 19.1562 10.4321 19.197 10.4321C22.1458 10.4321 24.6186 12.5049 25.2378 15.2705C26.0522 14.7217 26.6754 13.8865 26.9322 12.8593C27.4842 10.6529 26.1426 8.4177 23.937 7.8665" fill="#FF9933"/>
<path fill-rule="evenodd" clip-rule="evenodd" d="M30.2697 13.0176L28.8105 12.6528C28.4689 12.5672 28.1193 12.7768 28.0337 13.1184L28.0257 13.148C27.9401 13.4904 28.1505 13.84 28.4921 13.9248L29.9513 14.2896C30.2937 14.3752 30.6433 14.1656 30.7281 13.824L30.7361 13.7944C30.8209 13.4528 30.6113 13.1032 30.2697 13.0176" fill="#FF9933"/>
<path fill-rule="evenodd" clip-rule="evenodd" d="M28.5335 6.09576L28.5119 6.07496C28.2583 5.82936 27.8511 5.83656 27.6055 6.09016L26.5607 7.17096C26.3151 7.42456 26.3223 7.83176 26.5759 8.07736L26.5975 8.09816C26.8503 8.34296 27.2583 8.33656 27.5031 8.08296L28.5487 7.00136C28.7935 6.74776 28.7871 6.34056 28.5335 6.09576" fill="#FF9933"/>
<path fill-rule="evenodd" clip-rule="evenodd" d="M28.7088 16.5286L27.6272 15.483C27.3744 15.2382 26.9664 15.2446 26.7216 15.4982L26.7008 15.5198C26.456 15.7734 26.4624 16.1806 26.716 16.4262L27.7968 17.4718C28.0504 17.7158 28.4584 17.7094 28.7032 17.4566L28.7248 17.4342C28.9696 17.1806 28.9624 16.7734 28.7088 16.5286" fill="#FF9933"/>
<path fill-rule="evenodd" clip-rule="evenodd" d="M27.9885 10.4317C28.0853 10.7709 28.4413 10.9685 28.7805 10.8717L30.2261 10.4581C30.5653 10.3613 30.7637 10.0045 30.6669 9.66531L30.6581 9.63651C30.5613 9.29811 30.2053 9.09971 29.8661 9.19731L28.4197 9.61091C28.0813 9.70771 27.8829 10.0637 27.9797 10.4029L27.9885 10.4317Z" fill="#FF9933"/>
<path fill-rule="evenodd" clip-rule="evenodd" d="M19.1967 11.4794C18.7447 11.4794 18.3071 11.5378 17.8895 11.6474C17.1071 9.42898 14.9943 7.84018 12.5095 7.84018C9.46394 7.84018 6.97674 10.2258 6.81354 13.2298C6.62714 13.2058 6.43834 13.1882 6.24554 13.1882C3.87594 13.1882 1.95514 15.109 1.95514 17.4786C1.95514 19.8474 3.87594 21.769 6.24554 21.769H19.1967C21.9247 21.769 24.1503 19.6442 24.3247 16.9602C24.3319 16.8482 24.3415 16.737 24.3415 16.6242C24.3415 13.7818 22.0375 11.4794 19.1967 11.4794" fill="#D0D2D3"/>
</svg>
