<svg width="32" height="32" viewBox="0 0 32 32" fill="none" xmlns="http://www.w3.org/2000/svg">
<path fill-rule="evenodd" clip-rule="evenodd" d="M24.0104 18.7387L19.6044 15.8812L24.0658 13.1119C24.4549 12.8692 24.5736 12.3517 24.3348 11.9634L23.1535 10.062C22.9107 9.67294 22.394 9.55026 22.005 9.793L17.951 12.3109L17.9972 7.53439C18.0044 7.0767 17.6313 6.69809 17.1728 6.69491L14.9319 6.66898C14.4774 6.66662 14.0956 7.03495 14.0924 7.49346L14.0454 12.274L10.0378 9.67207C9.65053 9.42291 9.13184 9.53148 8.8835 9.91481L7.66186 11.7942C7.41353 12.1776 7.52687 12.6931 7.90939 12.9454L12.3145 15.8068L7.85314 18.5762C7.46408 18.8189 7.3414 19.3356 7.58414 19.7247L8.76548 21.6261C9.00822 22.0151 9.52492 22.1378 9.91398 21.8951L13.9688 19.3732L13.9217 24.1537C13.9185 24.6122 14.2917 24.9908 14.7462 24.9932L16.987 25.0191C17.4455 25.0223 17.8242 24.6492 17.8265 24.1946L17.8767 19.4189L21.8811 22.016C22.2684 22.2652 22.7871 22.1566 23.0363 21.7693L24.2531 19.893C24.5023 19.5057 24.3937 18.987 24.0104 18.7387" fill="#26A9E0"/>
</svg>
