<svg width="32" height="32" viewBox="0 0 32 32" fill="none" xmlns="http://www.w3.org/2000/svg">
<path fill-rule="evenodd" clip-rule="evenodd" d="M12.2009 20.1981C12.2009 20.1981 10.7169 20.9293 10.4737 21.0821C10.2297 21.2357 10.1377 21.3061 10.0177 21.4821C9.64254 22.0349 9.78574 22.7877 10.3385 23.1629C10.8913 23.5389 11.6441 23.3957 12.0185 22.8429C12.1417 22.6629 12.1617 22.5637 12.2241 22.2589C12.2865 21.9549 12.3905 20.3269 12.3905 20.3269C12.4025 20.1973 12.3169 20.1389 12.2009 20.1981" fill="#26A9E0"/>
<path fill-rule="evenodd" clip-rule="evenodd" d="M16.9386 24.1973C16.9386 24.1973 15.4546 24.9285 15.2122 25.0813C14.9682 25.2341 14.8762 25.3053 14.7562 25.4813C14.381 26.0341 14.5234 26.7869 15.0762 27.1621C15.629 27.5381 16.3818 27.3949 16.757 26.8421C16.8802 26.6621 16.9002 26.5629 16.9626 26.2581C17.025 25.9541 17.129 24.3253 17.129 24.3253C17.1402 24.1957 17.0546 24.1381 16.9386 24.1973" fill="#26A9E0"/>
<path fill-rule="evenodd" clip-rule="evenodd" d="M21.7651 20.1981C21.7651 20.1981 20.2811 20.9293 20.0379 21.0821C19.7939 21.2357 19.7019 21.3061 19.5819 21.4821C19.2067 22.0349 19.3499 22.7877 19.9027 23.1629C20.4555 23.5389 21.2083 23.3957 21.5835 22.8429C21.7067 22.6629 21.7267 22.5637 21.7883 22.2589C21.8507 21.9549 21.9547 20.3269 21.9547 20.3269C21.9667 20.1973 21.8811 20.1389 21.7651 20.1981" fill="#26A9E0"/>
<path fill-rule="evenodd" clip-rule="evenodd" d="M12.2009 24.1973C12.2009 24.1973 10.7169 24.9285 10.4737 25.0813C10.2297 25.2341 10.1377 25.3045 10.0177 25.4813C9.64254 26.0341 9.78574 26.7869 10.3385 27.1621C10.8913 27.5381 11.6441 27.3941 12.0185 26.8421C12.1417 26.6621 12.1617 26.5629 12.2241 26.2573C12.2865 25.9533 12.3905 24.3253 12.3905 24.3253C12.4025 24.1957 12.3169 24.1381 12.2009 24.1973" fill="#26A9E0"/>
<path fill-rule="evenodd" clip-rule="evenodd" d="M21.7651 24.1973C21.7651 24.1973 20.2811 24.9285 20.0379 25.0813C19.7939 25.2341 19.7019 25.3045 19.5819 25.4813C19.2067 26.0341 19.3499 26.7869 19.9027 27.1621C20.4555 27.5381 21.2083 27.3941 21.5835 26.8421C21.7067 26.6621 21.7267 26.5629 21.7883 26.2573C21.8507 25.9533 21.9547 24.3253 21.9547 24.3253C21.9667 24.1957 21.8811 24.1381 21.7651 24.1973" fill="#26A9E0"/>
<path fill-rule="evenodd" clip-rule="evenodd" d="M26.3307 20.1981C26.3307 20.1981 24.8467 20.9293 24.6035 21.0821C24.3595 21.2357 24.2675 21.3061 24.1475 21.4821C23.7723 22.0349 23.9155 22.7877 24.4683 23.1629C25.0211 23.5389 25.7739 23.3957 26.1491 22.8429C26.2723 22.6629 26.2923 22.5637 26.3539 22.2589C26.4163 21.9549 26.5203 20.3269 26.5203 20.3269C26.5323 20.1973 26.4467 20.1389 26.3307 20.1981" fill="#26A9E0"/>
<path fill-rule="evenodd" clip-rule="evenodd" d="M7.54708 20.1981C7.54708 20.1981 6.06308 20.9293 5.81988 21.0821C5.57668 21.2357 5.48388 21.3061 5.36388 21.4821C4.98868 22.0349 5.13188 22.7877 5.68548 23.1629C6.23748 23.5389 6.99028 23.3957 7.36548 22.8429C7.48868 22.6629 7.50868 22.5637 7.57108 22.2589C7.63348 21.9549 7.73748 20.3269 7.73748 20.3269C7.74868 20.1973 7.66309 20.1389 7.54708 20.1981" fill="#26A9E0"/>
<path fill-rule="evenodd" clip-rule="evenodd" d="M22.1346 8.43328C21.705 8.43328 21.2874 8.48928 20.8898 8.59328C20.1458 6.48208 18.1346 4.96848 15.7682 4.96848C12.8698 4.96848 10.5018 7.23968 10.3474 10.0997C10.169 10.0765 9.989 10.0597 9.8058 10.0597C7.5506 10.0597 5.7218 11.8885 5.7218 14.1445C5.7218 16.3997 7.5506 18.2277 9.8058 18.2277H10.6194L13.9274 10.2861C14.0626 9.96608 14.389 9.75008 14.7826 9.72368L19.7938 9.79168C20.0922 9.79568 20.3738 9.93088 20.549 10.1533C20.7594 10.4205 20.793 10.7757 20.6322 11.0765L18.1778 15.7029L21.6722 15.6109C22.009 15.5949 22.3314 15.7509 22.5162 16.0237C22.7274 16.3333 22.7098 16.7429 22.4674 17.0381L21.4898 18.2277H22.1346C24.8394 18.2277 27.0322 16.0357 27.0322 13.3309C27.0322 10.6253 24.8394 8.43328 22.1346 8.43328" fill="#D0D2D3"/>
<path fill-rule="evenodd" clip-rule="evenodd" d="M21.2058 16.3008L16.985 16.4144L19.7226 11.1408C19.7658 11.056 19.7562 10.9584 19.6962 10.8808C19.6362 10.8024 19.5338 10.7552 19.4226 10.7528L14.7946 10.6872C14.6578 10.6968 14.521 10.7608 14.4746 10.8752L10.9562 19.5088C10.9226 19.5936 10.9394 19.6872 11.0018 19.7608C11.0642 19.8328 11.1642 19.8752 11.2714 19.8752H11.273L15.4546 19.8504L13.7354 25.4216C13.6946 25.5528 13.7738 25.6888 13.9218 25.7448C13.965 25.7608 14.0114 25.7688 14.057 25.7688C14.1658 25.7688 14.2706 25.7248 14.333 25.6456L21.4922 16.7328C21.5618 16.6464 21.5674 16.5344 21.5066 16.444C21.4466 16.352 21.3282 16.2928 21.2058 16.3008" fill="#FF9933"/>
</svg>
