<svg width="40" height="40" viewBox="0 0 40 40" fill="none" xmlns="http://www.w3.org/2000/svg">
<g clip-path="url(#clip0)">
<path d="M20 20.0555C14.5013 20.0555 10.0277 24.529 10.0277 30.0277C10.0277 30.9202 10.7512 31.6435 11.6435 31.6435C12.5359 31.6435 13.2593 30.9202 13.2593 30.0277C13.2593 26.3109 16.2831 23.287 20 23.287C23.7169 23.287 26.7406 26.3109 26.7406 30.0277C26.7406 30.9202 27.464 31.6435 28.3564 31.6435C29.2488 31.6435 29.9722 30.9202 29.9722 30.0277C29.9722 24.529 25.4987 20.0555 20 20.0555Z" fill="white"/>
<path d="M20 16.6019C20.8924 16.6019 21.6158 15.8784 21.6158 14.9861L21.6158 3.2871C21.6158 2.39476 20.8924 1.67132 20 1.67132C19.1076 1.67132 18.3843 2.39468 18.3843 3.28702L18.3843 14.9861C18.3843 15.8784 19.1076 16.6019 20 16.6019Z" fill="white"/>
<path d="M10.513 18.2558L8.13982 15.8826C7.50889 15.2516 6.48576 15.2516 5.85482 15.8826C5.22381 16.5135 5.22381 17.5366 5.85482 18.1676L8.22803 20.5409C8.5435 20.8564 8.95709 21.0141 9.37061 21.0141C9.7842 21.0141 10.1977 20.8564 10.5131 20.5409C11.144 19.9098 11.144 18.8868 10.513 18.2558Z" fill="white"/>
<path d="M4.95836 28.4119H1.61578C0.723437 28.4119 0 29.1353 0 30.0277C0 30.9201 0.723437 31.6435 1.61578 31.6435H4.95836C5.85078 31.6435 6.57414 30.9201 6.57414 30.0277C6.57414 29.1353 5.8507 28.4119 4.95836 28.4119Z" fill="white"/>
<path d="M38.3842 28.4119H35.0416C34.1491 28.4119 33.4258 29.1353 33.4258 30.0277C33.4258 30.9201 34.1491 31.6435 35.0416 31.6435H38.3842C39.2766 31.6435 40 30.9201 40 30.0277C40 29.1353 39.2766 28.4119 38.3842 28.4119Z" fill="white"/>
<path d="M34.1452 15.8826C33.5142 15.2516 32.4912 15.2516 31.8602 15.8826L29.487 18.2558C28.856 18.8868 28.856 19.9098 29.487 20.5409C29.8024 20.8564 30.216 21.0141 30.6295 21.0141C31.043 21.0141 31.4566 20.8563 31.7721 20.5409L34.1453 18.1677C34.7762 17.5366 34.7762 16.5136 34.1452 15.8826Z" fill="white"/>
<path d="M38.3842 35.0971H1.61578C0.723437 35.0971 0 35.8205 0 36.7129C0 37.6053 0.723437 38.3287 1.61578 38.3287H38.3842C39.2766 38.3287 40 37.6053 40 36.7129C40 35.8205 39.2766 35.0971 38.3842 35.0971Z" fill="white"/>
<path d="M12.1723 11.1148C12.8033 11.7458 13.8263 11.7458 14.4574 11.1148L20 5.57219L25.5427 11.1148C26.1736 11.7458 27.1967 11.7458 27.8277 11.1148C28.4587 10.4838 28.4587 9.46078 27.8277 8.82977L21.1426 2.14461C20.8271 1.82914 20.4135 1.67133 20 1.67133C19.5865 1.67133 19.1729 1.82906 18.8574 2.14461L12.1723 8.82977C11.5413 9.4607 11.5413 10.4838 12.1723 11.1148Z" fill="white"/>
</g>
<defs>
<clipPath id="clip0">
<rect width="40" height="40" fill="white"/>
</clipPath>
</defs>
</svg>
