<svg width="40" height="40" viewBox="0 0 40 40" fill="none" xmlns="http://www.w3.org/2000/svg">
<g clip-path="url(#clip0)">
<path d="M20 20.0555C14.5013 20.0555 10.0277 24.529 10.0277 30.0277C10.0277 30.9202 10.7512 31.6435 11.6435 31.6435C12.5359 31.6435 13.2593 30.9202 13.2593 30.0277C13.2593 26.3109 16.2831 23.287 20 23.287C23.7169 23.287 26.7406 26.3109 26.7406 30.0277C26.7406 30.9202 27.464 31.6435 28.3564 31.6435C29.2488 31.6435 29.9722 30.9202 29.9722 30.0277C29.9722 24.529 25.4987 20.0555 20 20.0555Z" fill="white"/>
<path d="M20 1.67133C19.1077 1.67133 18.3842 2.39476 18.3842 3.28711V14.9861C18.3842 15.8784 19.1077 16.6019 20 16.6019C20.8924 16.6019 21.6158 15.8785 21.6158 14.9862V3.28711C21.6158 2.39476 20.8924 1.67133 20 1.67133Z" fill="white"/>
<path d="M10.513 18.2558L8.13982 15.8826C7.50889 15.2516 6.48576 15.2516 5.85482 15.8826C5.22381 16.5135 5.22381 17.5366 5.85482 18.1676L8.22803 20.5409C8.5435 20.8564 8.95709 21.0141 9.37061 21.0141C9.7842 21.0141 10.1977 20.8564 10.5131 20.5409C11.144 19.9098 11.144 18.8868 10.513 18.2558Z" fill="white"/>
<path d="M4.95836 28.4119H1.61578C0.723437 28.4119 0 29.1353 0 30.0277C0 30.9201 0.723437 31.6435 1.61578 31.6435H4.95836C5.85078 31.6435 6.57414 30.9201 6.57414 30.0277C6.57414 29.1353 5.8507 28.4119 4.95836 28.4119Z" fill="white"/>
<path d="M38.3842 28.4119H35.0416C34.1491 28.4119 33.4258 29.1353 33.4258 30.0277C33.4258 30.9201 34.1491 31.6435 35.0416 31.6435H38.3842C39.2766 31.6435 40 30.9201 40 30.0277C40 29.1353 39.2766 28.4119 38.3842 28.4119Z" fill="white"/>
<path d="M34.1452 15.8826C33.5142 15.2516 32.4912 15.2516 31.8602 15.8826L29.487 18.2558C28.856 18.8868 28.856 19.9098 29.487 20.5409C29.8024 20.8564 30.216 21.0141 30.6295 21.0141C31.043 21.0141 31.4566 20.8563 31.7721 20.5409L34.1453 18.1677C34.7762 17.5366 34.7762 16.5136 34.1452 15.8826Z" fill="white"/>
<path d="M38.3842 35.0971H1.61578C0.723437 35.0971 0 35.8205 0 36.7129C0 37.6053 0.723437 38.3287 1.61578 38.3287H38.3842C39.2766 38.3287 40 37.6053 40 36.7129C40 35.8205 39.2766 35.0971 38.3842 35.0971Z" fill="white"/>
<path d="M27.8277 7.15844C27.1967 6.52743 26.1737 6.52743 25.5427 7.15844L20 12.701L14.4573 7.15844C13.8264 6.52743 12.8033 6.52743 12.1723 7.15844C11.5413 7.78938 11.5413 8.81243 12.1723 9.44344L18.8574 16.1286C19.1729 16.4441 19.5865 16.6019 20 16.6019C20.4135 16.6019 20.8271 16.4441 21.1426 16.1286L27.8277 9.44344C28.4587 8.8125 28.4587 7.78946 27.8277 7.15844Z" fill="white"/>
</g>
<defs>
<clipPath id="clip0">
<rect width="40" height="40" fill="white"/>
</clipPath>
</defs>
</svg>
