<svg width="43" height="30" viewBox="0 0 43 30" fill="none" xmlns="http://www.w3.org/2000/svg">
<path fill-rule="evenodd" clip-rule="evenodd" d="M18.9474 16.3898H2.47234C2.17726 16.3898 1.87807 16.4187 1.58848 16.3788C0.715591 16.2562 -0.0227936 15.9133 0.000538277 14.8833C0.0224977 13.8532 0.738923 13.5034 1.65161 13.5007C4.93454 13.4883 8.21609 13.4883 11.499 13.4897C19.576 13.491 27.6556 13.5021 35.7326 13.4924C38.3046 13.4883 40.1505 11.6595 40.119 9.21801C40.0901 6.91417 38.2373 5.09506 35.9261 5.10195C33.6025 5.10883 31.7538 7.0505 31.8238 9.41768C31.8334 9.71237 31.8911 10.0057 31.9116 10.3004C31.9748 11.1996 31.6262 11.8399 30.6943 11.9763C29.7583 12.1126 29.2065 11.5783 29.0514 10.708C28.7715 9.1464 28.8963 7.61923 29.6251 6.17055C31.1719 3.1052 34.4713 1.59042 37.7885 2.44008C40.9795 3.25668 43.1096 6.20773 42.9956 9.65178C42.8886 12.9292 40.5238 15.7136 37.1792 16.2135C35.4457 16.4738 33.6574 16.4091 31.8938 16.4187C27.5788 16.4449 23.2624 16.427 18.9474 16.427V16.3898Z" fill="white"/>
<path fill-rule="evenodd" clip-rule="evenodd" d="M18.8027 19.9401C22.7829 19.9401 26.7644 19.9414 30.7445 19.9387C33.4153 19.9387 35.6538 21.8321 35.872 24.3301C36.1451 27.4767 34.4611 29.362 31.675 29.9086C29.044 30.4237 26.634 28.7092 26.096 26.0708C25.9327 25.2652 26.2195 24.6758 26.9908 24.4059C27.7594 24.1374 28.3592 24.4279 28.7613 25.1233C28.8533 25.2817 28.9013 25.4648 28.9713 25.6342C29.4338 26.7455 30.2573 27.2137 31.3086 26.9645C32.4464 26.6932 33.1093 25.8132 32.9995 24.7185C32.8938 23.6568 32.047 22.876 30.8804 22.8677C27.3422 22.8457 23.804 22.8581 20.2658 22.8581C15.7353 22.8594 11.2034 22.8608 6.67428 22.8608C6.45194 22.8608 6.2296 22.8746 6.01138 22.8484C5.15359 22.7479 4.52912 22.3499 4.46461 21.4163C4.41109 20.63 5.11653 19.9938 6.0951 19.9814C8.52436 19.9538 10.955 19.969 13.3842 19.9676C15.1904 19.9662 16.9966 19.9662 18.8027 19.9662V19.9401Z" fill="white"/>
<path fill-rule="evenodd" clip-rule="evenodd" d="M13.5582 9.98985C11.1632 9.98985 8.76828 9.99949 6.37471 9.98435C5.19988 9.97746 4.47385 9.43076 4.45463 8.60039C4.43405 7.71218 5.1889 7.1049 6.39941 7.10214C11.0425 7.09526 15.6855 7.10903 20.3285 7.10214C21.5871 7.09939 22.4819 6.35302 22.5876 5.2789C22.6947 4.19928 22.007 3.22983 20.9434 2.9613C19.9113 2.70103 18.9739 3.2615 18.4826 4.50224C18.134 5.38081 17.5891 5.85314 16.6229 5.56533C15.7239 5.2968 15.4261 4.48571 15.7843 3.38681C16.3841 1.53879 18.2177 0.125913 20.1652 0.00886261C22.2445 -0.115074 24.2126 1.07058 25.0484 2.95441C26.5293 6.29243 24.1893 9.95405 20.5262 9.99398C18.204 10.0201 15.8804 9.99949 13.5582 9.99949V9.98985Z" fill="white"/>
</svg>
