<svg width="28" height="28" viewBox="0 0 28 28" fill="none" xmlns="http://www.w3.org/2000/svg">
<path d="M2.73467 17.8162L5.068 21.8528C5.22291 22.1206 5.47781 22.3159 5.77667 22.3957C6.07552 22.4756 6.39385 22.4335 6.66167 22.2787L8.29033 21.3383C8.967 21.8715 9.71483 22.309 10.5012 22.6357V24.5C10.5012 24.8094 10.6241 25.1062 10.8429 25.325C11.0617 25.5438 11.3584 25.6667 11.6678 25.6667H16.3345C16.6439 25.6667 16.9407 25.5438 17.1595 25.325C17.3783 25.1062 17.5012 24.8094 17.5012 24.5V22.6357C18.2937 22.3057 19.0374 21.8693 19.712 21.3383L21.3407 22.2787C21.8972 22.5995 22.6135 22.407 22.9343 21.8528L25.2677 17.8162C25.4212 17.5481 25.4626 17.2302 25.3829 16.9317C25.3031 16.6332 25.1086 16.3783 24.8418 16.2225L23.2412 15.2973C23.3662 14.4369 23.3654 13.5629 23.2388 12.7027L24.8395 11.7775C25.3948 11.4567 25.5873 10.7392 25.2653 10.1838L22.932 6.14718C22.7771 5.87942 22.5222 5.68415 22.2233 5.6043C21.9245 5.52444 21.6062 5.56654 21.3383 5.72134L19.7097 6.66168C19.036 6.13012 18.2925 5.6936 17.5 5.36434V3.50001C17.5 3.19059 17.3771 2.89384 17.1583 2.67505C16.9395 2.45626 16.6428 2.33334 16.3333 2.33334H11.6667C11.3572 2.33334 11.0605 2.45626 10.8417 2.67505C10.6229 2.89384 10.5 3.19059 10.5 3.50001V5.36434C9.70751 5.69429 8.96372 6.13075 8.28917 6.66168L6.66167 5.72134C6.5291 5.64454 6.38268 5.59463 6.2308 5.57446C6.07892 5.5543 5.92456 5.56428 5.77654 5.60383C5.62852 5.64338 5.48975 5.71173 5.36818 5.80496C5.2466 5.89819 5.14459 6.01448 5.068 6.14718L2.73467 10.1838C2.58112 10.4519 2.53972 10.7699 2.61947 11.0683C2.69923 11.3668 2.89369 11.6217 3.1605 11.7775L4.76117 12.7027C4.63532 13.563 4.63532 14.437 4.76117 15.2973L3.1605 16.2225C2.60517 16.5433 2.41267 17.2608 2.73467 17.8162ZM14 9.33334C16.5737 9.33334 18.6667 11.4263 18.6667 14C18.6667 16.5737 16.5737 18.6667 14 18.6667C11.4263 18.6667 9.33333 16.5737 9.33333 14C9.33333 11.4263 11.4263 9.33334 14 9.33334Z" fill="white"/>
</svg>
